<?xml version="1.0" standalone="no"?>
<!DOCTYPE svg PUBLIC "-//W3C//DTD SVG 20010904//EN"
 "http://www.w3.org/TR/2001/REC-SVG-20010904/DTD/svg10.dtd">
<svg version="1.0" xmlns="http://www.w3.org/2000/svg"
 width="512.000000pt" height="512.000000pt" viewBox="0 0 512.000000 512.000000"
 preserveAspectRatio="xMidYMid meet">
<metadata>
Created by potrace 1.14, written by Peter Selinger 2001-2017
</metadata>
<g transform="translate(0.000000,512.000000) scale(0.100000,-0.100000)"
fill="#000000" stroke="none">
<path d="M125 3341 c-157 -72 -152 -299 7 -366 21 -8 47 -15 58 -15 17 0 20
-7 21 -42 2 -49 4 -81 13 -187 27 -326 109 -565 246 -717 100 -110 261 -200
410 -228 19 -3 46 -9 60 -12 58 -14 355 -13 430 2 41 8 84 16 95 18 90 17 260
95 364 167 150 104 318 313 393 487 11 26 25 61 33 77 49 115 93 306 101 447
4 57 8 104 9 106 1 1 24 -2 51 -8 51 -10 284 -6 320 5 20 6 21 2 27 -97 4 -57
9 -114 12 -128 2 -14 10 -50 16 -80 55 -273 201 -541 391 -719 154 -144 366
-246 583 -280 63 -10 372 -8 415 3 14 3 39 8 55 12 116 22 244 80 331 150 214
170 318 457 339 929 l3 90 37 7 c73 16 122 55 150 120 30 74 10 173 -46 225
-60 55 -18 53 -1067 53 -921 0 -973 -1 -1058 -19 -49 -11 -116 -29 -149 -41
-86 -30 -118 -35 -230 -33 -83 0 -116 6 -195 32 -193 63 -143 60 -1210 60
-928 1 -977 0 -1015 -18z m2007 -209 c20 -19 23 -33 23 -95 -2 -295 -132 -615
-332 -815 -119 -118 -238 -186 -403 -229 -82 -22 -117 -26 -260 -26 -141 -1
-177 3 -250 22 -225 60 -362 202 -429 443 -12 43 -24 90 -26 105 -2 15 -8 57
-13 93 -15 90 -21 179 -28 366 l-5 161 850 -1 850 -1 23 -23z m2573 -131 c-4
-152 -10 -259 -21 -331 -3 -19 -7 -55 -10 -79 -10 -83 -54 -233 -91 -307 -113
-228 -314 -327 -648 -319 -133 3 -157 7 -262 36 -259 72 -454 248 -588 531
-38 81 -87 229 -101 301 -13 75 -21 156 -20 212 2 71 20 102 65 107 14 2 398
4 853 4 l827 1 -4 -156z"/>
</g>
</svg>
